<?xml version="1.0" standalone="no"?>
<!DOCTYPE svg PUBLIC "-//W3C//DTD SVG 20010904//EN"
 "http://www.w3.org/TR/2001/REC-SVG-20010904/DTD/svg10.dtd">
<svg version="1.0" xmlns="http://www.w3.org/2000/svg"
 width="298.000000pt" height="298.000000pt" viewBox="0 0 298.000000 298.000000"
 preserveAspectRatio="xMidYMid meet">
<metadata>
Created by potrace 1.11, written by Peter Selinger 2001-2013
</metadata>
<g transform="translate(0.000000,298.000000) scale(0.100000,-0.100000)"
fill="#000000" stroke="none">
<path d="M298 2970 c-147 -3 -270 -9 -274 -13 -4 -4 -2 -7 5 -7 10 0 11 -28 6
-129 -7 -124 -7 -129 14 -150 23 -23 26 -78 5 -74 -8 1 -14 -38 -19 -120 -7
-116 -6 -122 14 -138 29 -24 30 -89 2 -89 -18 0 -20 -9 -23 -107 -4 -132 -1
-150 23 -156 13 -3 19 -14 19 -32 0 -22 -4 -26 -19 -22 -17 4 -19 -4 -23 -107
-5 -117 1 -156 27 -156 11 0 15 -10 15 -36 0 -32 -3 -36 -21 -31 l-21 6 4
-515 c2 -406 0 -514 -9 -514 -24 0 -12 -15 35 -45 26 -16 200 -130 387 -253
186 -124 359 -233 384 -244 123 -52 522 -43 1750 42 156 11 297 20 312 20 19
0 29 5 29 15 0 10 -10 15 -32 15 -31 0 -517 -21 -833 -36 -77 -4 -138 -4 -135
-1 3 3 22 7 43 9 20 1 37 6 37 11 0 4 3 6 8 4 4 -3 5 24 4 59 -3 59 -2 63 20
68 12 3 167 15 343 26 176 12 372 27 435 34 108 10 115 12 118 33 4 27 -4 28
-117 13 -189 -25 -867 -68 -879 -56 -3 3 3 6 12 6 16 0 17 7 11 61 -5 45 -4
60 4 55 6 -4 9 -11 6 -16 -3 -4 -1 -19 4 -32 6 -15 8 18 5 97 -3 66 -1 271 4
455 l9 335 0 -447 c0 -247 3 -451 6 -455 4 -3 7 197 7 445 0 287 4 452 10 452
5 0 11 -61 13 -147 l3 -148 -1 152 0 151 90 10 c72 8 51 8 -107 4 l-198 -5 0
36 c0 19 -6 37 -12 40 -7 3 5 3 27 1 22 -3 101 -1 175 4 92 6 113 10 68 11
-54 1 -68 4 -68 17 0 8 -4 12 -10 9 -6 -3 -10 4 -10 17 0 18 2 20 10 8 6 -9
10 26 12 103 l3 116 -25 4 c-14 1 25 6 85 10 61 5 119 9 130 11 36 6 -127 4
-260 -3 l-130 -6 4 43 3 42 97 1 c53 1 139 5 191 9 77 5 85 7 40 9 -30 2 -72
3 -92 3 l-38 0 0 137 c0 91 3 131 10 121 6 -9 10 -10 10 -3 0 8 23 13 63 16
34 2 -16 4 -110 5 l-173 2 0 35 0 35 178 2 c151 2 163 3 77 7 -55 4 -89 8 -76
11 23 5 23 6 22 134 -2 114 0 128 14 122 9 -3 13 -2 10 3 -3 5 5 12 17 14 13
3 -44 5 -126 4 -83 -1 -142 -1 -133 1 12 2 17 13 17 36 l0 33 198 10 c165 8
179 10 90 11 -68 1 -108 6 -108 13 0 5 4 7 10 4 6 -4 10 46 10 144 l0 150 33
5 c17 3 43 7 57 9 14 3 -148 6 -360 7 -212 2 -366 5 -343 7 41 4 42 4 36 38
-3 19 -2 42 2 52 5 10 9 22 9 28 1 5 15 10 31 11 97 5 83 8 -60 14 -194 9
-753 9 -1117 0z m1702 -312 c0 -78 -2 -139 -4 -137 -2 2 -7 66 -11 142 -4 96
-3 137 4 137 7 0 11 -47 11 -142z m-207 -185 c-7 -2 -21 -2 -30 0 -10 3 -4 5
12 5 17 0 24 -2 18 -5z m-35 -80 c-10 -2 -26 -2 -35 0 -10 3 -2 5 17 5 19 0
27 -2 18 -5z m239 -200 c-2 -37 -3 -9 -3 62 0 72 1 102 3 68 2 -34 2 -93 0
-130z m0 -275 c-2 -13 -4 -5 -4 17 -1 22 1 32 4 23 2 -10 2 -28 0 -40z m-20
10 c-3 -7 -5 -2 -5 12 0 14 2 19 5 13 2 -7 2 -19 0 -25z m13 -148 c6 0 10 -7
10 -15 0 -23 -17 -18 -24 8 -3 12 -5 49 -4 82 l2 60 3 -67 c2 -38 8 -68 13
-68z m7 88 c-3 -8 -6 -5 -6 6 -1 11 2 17 5 13 3 -3 4 -12 1 -19z m0 -65 c-3
-10 -5 -2 -5 17 0 19 2 27 5 18 2 -10 2 -26 0 -35z m-40 0 c-3 -10 -5 -4 -5
12 0 17 2 24 5 18 2 -7 2 -21 0 -30z m28 -257 c0 -41 -3 -69 -7 -63 -14 22 -9
137 6 137 1 0 1 -33 1 -74z m2 -108 c-3 -8 -6 -5 -6 6 -1 11 2 17 5 13 3 -3 4
-12 1 -19z m-23 -64 c3 -8 2 -12 -4 -9 -6 3 -10 10 -10 16 0 14 7 11 14 -7z
m-7 -751 c-1 -109 -2 -20 -2 197 0 217 1 306 2 198 2 -109 2 -287 0 -395z m36
-390 c-7 -2 -19 -2 -25 0 -7 3 -2 5 12 5 14 0 19 -2 13 -5z m3 -111 c-14 -13
-18 11 -10 55 l9 48 3 -49 c2 -26 1 -51 -2 -54z"/>
<path d="M1788 2963 c17 -2 47 -2 65 0 17 2 3 4 -33 4 -36 0 -50 -2 -32 -4z"/>
<path d="M1441 2893 c-1 -26 2 -31 15 -26 9 3 11 9 6 12 -5 3 -12 15 -15 26
-3 13 -5 9 -6 -12z"/>
<path d="M2433 2483 l-213 -3 0 -35 0 -35 73 1 c39 0 193 4 341 8 244 7 270 9
282 26 28 37 2 45 -140 43 -72 -2 -227 -4 -343 -5z"/>
<path d="M2530 2110 c-135 -4 -260 -8 -277 -9 -30 -1 -33 -4 -33 -32 l0 -32
328 8 c343 7 378 12 370 53 -4 21 -37 22 -388 12z"/>
<path d="M2188 2103 c7 -3 16 -2 19 1 4 3 -2 6 -13 5 -11 0 -14 -3 -6 -6z"/>
<path d="M2565 1750 c-115 -4 -240 -8 -277 -9 l-68 -1 0 -40 0 -40 68 5 c37 3
182 8 324 11 163 4 265 10 280 18 31 16 30 48 -2 57 -28 8 -35 8 -325 -1z"/>
<path d="M2024 1490 c0 -69 1 -97 3 -62 2 34 2 90 0 125 -2 34 -3 6 -3 -63z"/>
<path d="M2610 1370 c-91 -4 -216 -8 -277 -9 l-113 -1 0 -41 0 -41 68 6 c37 3
175 8 307 11 132 4 257 11 278 16 38 10 57 33 41 49 -14 14 -127 18 -304 10z"/>
<path d="M2015 930 c-3 -5 -1 -10 4 -10 6 0 11 5 11 10 0 6 -2 10 -4 10 -3 0
-8 -4 -11 -10z"/>
<path d="M2023 480 c0 -36 2 -50 4 -32 2 17 2 47 0 65 -2 17 -4 3 -4 -33z"/>
</g>
</svg>
